<svg xmlns="http://www.w3.org/2000/svg" xmlns:xlink="http://www.w3.org/1999/xlink" width="2rem" zoomAndPan="magnify" viewBox="0 0 375 374.999991" height="2rem" preserveAspectRatio="xMidYMid meet" version="1.0"><path fill="#000000" d="M 372.691406 279.882812 C 375 282.769531 375.578125 286.808594 373.847656 290.269531 C 372.117188 293.730469 368.652344 296.039062 364.617188 296.039062 L 9.808594 296.039062 C 5.769531 296.039062 2.308594 293.730469 0.578125 290.269531 C -0.578125 286.808594 0 282.769531 2.308594 279.882812 L 36.921875 234.308594 C 39.808594 230.847656 43.847656 229.117188 47.882812 229.117188 L 80.191406 229.117188 L 80.191406 232 L 85.960938 232 L 85.960938 229.117188 L 289.039062 229.117188 L 289.039062 232 L 294.808594 232 L 294.808594 229.117188 L 327.117188 229.117188 C 331.152344 229.117188 335.191406 230.847656 338.078125 234.308594 Z M 368.652344 287.960938 C 369.230469 286.230469 369.230469 285.078125 368.078125 283.347656 L 333.460938 237.769531 C 331.730469 236.039062 329.421875 234.882812 327.117188 234.882812 L 47.882812 234.882812 C 45.578125 234.882812 43.269531 236.039062 41.539062 237.769531 L 6.921875 283.347656 C 5.769531 284.5 5.769531 286.230469 6.347656 287.960938 C 6.921875 289.691406 8.652344 290.269531 10.382812 290.269531 L 365.191406 290.269531 C 366.347656 290.269531 368.078125 289.117188 368.652344 287.960938 Z M 368.652344 287.960938 " fill-opacity="1" fill-rule="nonzero"/><path fill="#5debdf" d="M 368.652344 283.347656 C 369.808594 284.5 369.808594 286.230469 369.230469 287.960938 C 368.652344 289.691406 366.921875 290.269531 365.191406 290.269531 L 220.960938 290.269531 L 220.960938 278.152344 L 222.691406 278.152344 L 223.847656 277 C 224.421875 275.847656 225 274.691406 225 272.960938 L 221.539062 249.886719 C 221.539062 247.578125 219.808594 246.421875 218.078125 246.421875 L 218.078125 234.882812 L 327.691406 234.882812 C 330 234.882812 332.308594 236.039062 334.039062 237.769531 Z M 332.308594 254.5 C 332.308594 252.769531 331.152344 251.617188 329.421875 251.617188 L 249.808594 251.617188 C 248.078125 251.617188 246.921875 252.769531 246.921875 254.5 C 246.921875 256.230469 248.078125 257.386719 249.808594 257.386719 L 328.847656 257.386719 C 331.152344 257.386719 332.308594 256.230469 332.308594 254.5 Z M 332.308594 269.5 C 332.308594 267.769531 331.152344 266.617188 329.421875 266.617188 L 249.808594 266.617188 C 248.078125 266.617188 246.921875 267.769531 246.921875 269.5 C 246.921875 271.230469 248.078125 272.382812 249.808594 272.382812 L 328.847656 272.382812 C 331.152344 272.382812 332.308594 270.652344 332.308594 269.5 Z M 332.308594 269.5 " fill-opacity="1" fill-rule="nonzero"/><path fill="#000000" d="M 335.191406 52 L 335.191406 202.578125 C 335.191406 210.078125 329.421875 215.847656 321.921875 215.847656 L 294.808594 215.847656 L 294.808594 212.960938 L 289.039062 212.960938 L 289.039062 215.847656 L 85.960938 215.847656 L 85.960938 212.960938 L 80.191406 212.960938 L 80.191406 215.847656 L 53.078125 215.847656 C 45.578125 215.847656 39.808594 210.078125 39.808594 202.578125 L 39.808594 52 C 39.808594 44.5 45.578125 38.730469 53.078125 38.730469 L 322.5 38.730469 C 329.421875 38.730469 335.191406 44.5 335.191406 52 Z M 329.421875 202.578125 L 329.421875 52 C 329.421875 47.960938 325.960938 44.5 321.921875 44.5 L 53.078125 44.5 C 49.039062 44.5 45.578125 47.960938 45.578125 52 L 45.578125 202.578125 C 45.578125 206.617188 49.039062 210.078125 53.078125 210.078125 L 322.5 210.078125 C 326.539062 210.078125 329.421875 206.617188 329.421875 202.578125 Z M 329.421875 202.578125 " fill-opacity="1" fill-rule="nonzero"/><path fill="#000000" d="M 329.421875 251.617188 C 331.152344 251.617188 332.308594 252.769531 332.308594 254.5 C 332.308594 256.230469 331.152344 257.386719 329.421875 257.386719 L 249.808594 257.386719 C 248.078125 257.386719 246.921875 256.230469 246.921875 254.5 C 246.921875 252.769531 248.078125 251.617188 249.808594 251.617188 Z M 329.421875 251.617188 " fill-opacity="1" fill-rule="nonzero"/><path fill="#000000" d="M 329.421875 266.617188 C 331.152344 266.617188 332.308594 267.769531 332.308594 269.5 C 332.308594 271.230469 331.152344 272.382812 329.421875 272.382812 L 249.808594 272.382812 C 248.078125 272.382812 246.921875 271.230469 246.921875 269.5 C 246.921875 267.769531 248.078125 266.617188 249.808594 266.617188 Z M 329.421875 266.617188 " fill-opacity="1" fill-rule="nonzero"/><path fill="#ffffff" d="M 329.421875 52 L 329.421875 202.578125 C 329.421875 206.617188 325.960938 210.078125 321.921875 210.078125 L 53.078125 210.078125 C 49.039062 210.078125 45.578125 206.617188 45.578125 202.578125 L 45.578125 52 C 45.578125 47.960938 49.039062 44.5 53.078125 44.5 L 322.5 44.5 C 326.539062 44.5 329.421875 47.960938 329.421875 52 Z M 320.769531 191.617188 L 320.769531 57.769531 C 320.769531 55.460938 319.039062 53.152344 316.152344 53.152344 L 58.847656 53.152344 C 56.539062 53.152344 54.230469 55.460938 54.230469 57.769531 L 54.230469 191.617188 C 54.230469 193.921875 55.960938 196.230469 58.847656 196.230469 L 316.152344 196.230469 C 318.460938 196.230469 320.769531 193.921875 320.769531 191.617188 Z M 320.769531 191.617188 " fill-opacity="1" fill-rule="nonzero"/><path fill="#000000" d="M 320.769531 57.769531 L 320.769531 191.617188 C 320.769531 193.921875 319.039062 196.230469 316.152344 196.230469 L 58.847656 196.230469 C 56.539062 196.230469 54.230469 193.921875 54.230469 191.617188 L 54.230469 57.769531 C 54.230469 55.460938 55.960938 53.152344 58.847656 53.152344 L 316.152344 53.152344 C 318.460938 53.152344 320.769531 55.460938 320.769531 57.769531 Z M 315 190.460938 L 315 58.921875 L 60 58.921875 L 60 190.460938 Z M 315 190.460938 " fill-opacity="1" fill-rule="nonzero"/><path fill="#5debdf" d="M 315 58.921875 L 315 190.460938 L 128.078125 190.460938 L 128.078125 173.730469 C 130.382812 173.730469 132.691406 171.421875 132.691406 169.117188 L 132.691406 110.847656 C 132.691406 108.539062 130.382812 106.230469 128.078125 106.230469 L 83.652344 106.230469 C 81.347656 106.230469 79.039062 108.539062 79.039062 110.847656 L 79.039062 169.117188 C 79.039062 171.421875 81.347656 173.730469 83.652344 173.730469 L 83.652344 190.460938 L 60 190.460938 L 60 58.921875 Z M 295.960938 79.117188 C 295.960938 77.382812 294.808594 76.230469 293.078125 76.230469 L 81.921875 76.230469 C 80.191406 76.230469 79.039062 77.382812 79.039062 79.117188 C 79.039062 80.847656 80.191406 82 81.921875 82 L 293.078125 82 C 294.808594 82 295.960938 80.269531 295.960938 79.117188 Z M 295.960938 109.117188 C 295.960938 107.382812 294.808594 106.230469 293.078125 106.230469 L 154.039062 106.230469 C 152.308594 106.230469 151.152344 107.382812 151.152344 109.117188 C 151.152344 110.847656 152.308594 112 154.039062 112 L 293.652344 112 C 294.808594 112 295.960938 110.847656 295.960938 109.117188 Z M 295.960938 129.308594 C 295.960938 127.578125 294.808594 126.421875 293.078125 126.421875 L 154.039062 126.421875 C 152.308594 126.421875 151.152344 127.578125 151.152344 129.308594 C 151.152344 131.039062 152.308594 132.191406 154.039062 132.191406 L 293.652344 132.191406 C 294.808594 132.191406 295.960938 131.039062 295.960938 129.308594 Z M 295.960938 150.078125 C 295.960938 148.347656 294.808594 147.191406 293.078125 147.191406 L 154.039062 147.191406 C 152.308594 147.191406 151.152344 148.347656 151.152344 150.078125 C 151.152344 151.808594 152.308594 152.960938 154.039062 152.960938 L 293.652344 152.960938 C 294.808594 152.960938 295.960938 151.808594 295.960938 150.078125 Z M 295.960938 170.847656 C 295.960938 169.117188 294.808594 167.960938 293.078125 167.960938 L 154.039062 167.960938 C 152.308594 167.960938 151.152344 169.117188 151.152344 170.847656 C 151.152344 172.578125 152.308594 173.730469 154.039062 173.730469 L 293.652344 173.730469 C 294.808594 173.730469 295.960938 172 295.960938 170.847656 Z M 295.960938 170.847656 " fill-opacity="1" fill-rule="nonzero"/><path fill="#000000" d="M 289.039062 229.117188 L 294.808594 229.117188 L 294.808594 232 L 289.039062 232 Z M 289.039062 229.117188 " fill-opacity="1" fill-rule="nonzero"/><path fill="#000000" d="M 289.039062 215.847656 L 294.808594 215.847656 L 294.808594 229.117188 L 289.039062 229.117188 Z M 289.039062 215.847656 " fill-opacity="1" fill-rule="nonzero"/><path fill="#000000" d="M 289.039062 212.960938 L 294.808594 212.960938 L 294.808594 215.847656 L 289.039062 215.847656 Z M 289.039062 212.960938 " fill-opacity="1" fill-rule="nonzero"/><path fill="#000000" d="M 293.078125 76.230469 C 294.808594 76.230469 295.960938 77.382812 295.960938 79.117188 C 295.960938 80.847656 294.808594 82 293.078125 82 L 81.921875 82 C 80.191406 82 79.039062 80.847656 79.039062 79.117188 C 79.039062 77.382812 80.191406 76.230469 81.921875 76.230469 Z M 293.078125 76.230469 " fill-opacity="1" fill-rule="nonzero"/><path fill="#000000" d="M 293.078125 106.230469 C 294.808594 106.230469 295.960938 107.382812 295.960938 109.117188 C 295.960938 110.847656 294.808594 112 293.078125 112 L 154.039062 112 C 152.308594 112 151.152344 110.847656 151.152344 109.117188 C 151.152344 107.382812 152.308594 106.230469 154.039062 106.230469 Z M 293.078125 106.230469 " fill-opacity="1" fill-rule="nonzero"/><path fill="#000000" d="M 293.078125 126.421875 C 294.808594 126.421875 295.960938 127.578125 295.960938 129.308594 C 295.960938 131.039062 294.808594 132.191406 293.078125 132.191406 L 154.039062 132.191406 C 152.308594 132.191406 151.152344 131.039062 151.152344 129.308594 C 151.152344 127.578125 152.308594 126.421875 154.039062 126.421875 Z M 293.078125 126.421875 " fill-opacity="1" fill-rule="nonzero"/><path fill="#000000" d="M 293.078125 147.191406 C 294.808594 147.191406 295.960938 148.347656 295.960938 150.078125 C 295.960938 151.808594 294.808594 152.960938 293.078125 152.960938 L 154.039062 152.960938 C 152.308594 152.960938 151.152344 151.808594 151.152344 150.078125 C 151.152344 148.347656 152.308594 147.191406 154.039062 147.191406 Z M 293.078125 147.191406 " fill-opacity="1" fill-rule="nonzero"/><path fill="#000000" d="M 293.078125 167.960938 C 294.808594 167.960938 295.960938 169.117188 295.960938 170.847656 C 295.960938 172.578125 294.808594 173.730469 293.078125 173.730469 L 154.039062 173.730469 C 152.308594 173.730469 151.152344 172.578125 151.152344 170.847656 C 151.152344 169.117188 152.308594 167.960938 154.039062 167.960938 Z M 293.078125 167.960938 " fill-opacity="1" fill-rule="nonzero"/><path fill="#000000" d="M 225 272.960938 C 225 274.691406 225 275.847656 223.847656 277 L 222.691406 278.152344 L 152.882812 278.152344 L 151.730469 277 C 151.152344 275.847656 150.578125 274.691406 150.578125 272.960938 L 154.039062 249.882812 C 154.617188 247.578125 155.769531 246.421875 157.5 246.421875 L 217.5 246.421875 C 219.230469 246.421875 220.960938 247.578125 220.960938 249.882812 Z M 218.652344 272.382812 L 215.769531 251.617188 L 159.230469 251.617188 L 156.347656 272.382812 Z M 218.652344 272.382812 " fill-opacity="1" fill-rule="nonzero"/><path fill="#5debdf" d="M 220.960938 278.152344 L 220.960938 290.269531 L 9.808594 290.269531 C 8.078125 290.269531 6.921875 289.117188 5.769531 287.960938 C 5.769531 286.230469 5.769531 284.5 6.921875 283.347656 L 41.539062 237.769531 C 43.269531 236.039062 45.578125 234.882812 47.882812 234.882812 L 217.5 234.882812 L 217.5 245.847656 L 157.5 245.847656 C 155.769531 245.847656 154.039062 247.578125 154.039062 249.308594 L 150.578125 272.382812 C 150.578125 274.117188 150.578125 275.269531 151.730469 276.421875 L 152.882812 277.578125 L 220.960938 277.578125 Z M 128.078125 254.5 C 128.078125 252.769531 126.921875 251.617188 125.191406 251.617188 L 45.578125 251.617188 C 43.847656 251.617188 42.691406 252.769531 42.691406 254.5 C 42.691406 256.230469 43.847656 257.386719 45.578125 257.386719 L 124.617188 257.386719 C 126.347656 257.386719 128.078125 256.230469 128.078125 254.5 Z M 128.078125 269.5 C 128.078125 267.769531 126.921875 266.617188 125.191406 266.617188 L 45.578125 266.617188 C 43.847656 266.617188 42.691406 267.769531 42.691406 269.5 C 42.691406 271.230469 43.847656 272.382812 45.578125 272.382812 L 124.617188 272.382812 C 126.347656 272.382812 128.078125 270.652344 128.078125 269.5 Z M 128.078125 269.5 " fill-opacity="1" fill-rule="nonzero"/><path fill="#ffffff" d="M 215.769531 251.617188 L 218.652344 272.382812 L 156.347656 272.382812 L 159.230469 251.617188 Z M 215.769531 251.617188 " fill-opacity="1" fill-rule="nonzero"/><path fill="#000000" d="M 132.691406 110.847656 L 132.691406 169.117188 C 132.691406 171.421875 130.382812 173.730469 128.078125 173.730469 L 83.652344 173.730469 C 81.347656 173.730469 79.039062 171.421875 79.039062 169.117188 L 79.039062 110.847656 C 79.039062 108.539062 81.347656 106.230469 83.652344 106.230469 L 128.078125 106.230469 C 130.382812 106.230469 132.691406 108.539062 132.691406 110.847656 Z M 126.921875 167.960938 L 126.921875 112 L 84.808594 112 L 84.808594 167.960938 Z M 126.921875 167.960938 " fill-opacity="1" fill-rule="nonzero"/><path fill="#5debdf" d="M 83.652344 173.730469 L 128.078125 173.730469 L 128.078125 190.460938 L 83.652344 190.460938 Z M 83.652344 173.730469 " fill-opacity="1" fill-rule="nonzero"/><path fill="#ffffff" d="M 84.808594 112 L 126.921875 112 L 126.921875 167.960938 L 84.808594 167.960938 Z M 84.808594 112 " fill-opacity="1" fill-rule="nonzero"/><path fill="#000000" d="M 125.191406 251.617188 C 126.921875 251.617188 128.078125 252.769531 128.078125 254.5 C 128.078125 256.230469 126.921875 257.386719 125.191406 257.386719 L 45.578125 257.386719 C 43.847656 257.386719 42.691406 256.230469 42.691406 254.5 C 42.691406 252.769531 43.847656 251.617188 45.578125 251.617188 Z M 125.191406 251.617188 " fill-opacity="1" fill-rule="nonzero"/><path fill="#000000" d="M 125.191406 266.617188 C 126.921875 266.617188 128.078125 267.769531 128.078125 269.5 C 128.078125 271.230469 126.921875 272.382812 125.191406 272.382812 L 45.578125 272.382812 C 43.847656 272.382812 42.691406 271.230469 42.691406 269.5 C 42.691406 267.769531 43.847656 266.617188 45.578125 266.617188 Z M 125.191406 266.617188 " fill-opacity="1" fill-rule="nonzero"/><path fill="#000000" d="M 80.191406 229.117188 L 85.960938 229.117188 L 85.960938 232 L 80.191406 232 Z M 80.191406 229.117188 " fill-opacity="1" fill-rule="nonzero"/><path fill="#000000" d="M 80.191406 215.847656 L 85.960938 215.847656 L 85.960938 229.117188 L 80.191406 229.117188 Z M 80.191406 215.847656 " fill-opacity="1" fill-rule="nonzero"/><path fill="#000000" d="M 80.191406 212.960938 L 85.960938 212.960938 L 85.960938 215.847656 L 80.191406 215.847656 Z M 80.191406 212.960938 " fill-opacity="1" fill-rule="nonzero"/></svg>