<svg xmlns="http://www.w3.org/2000/svg" xmlns:xlink="http://www.w3.org/1999/xlink" width="500" zoomAndPan="magnify" viewBox="0 0 375 374.999991" height="500" preserveAspectRatio="xMidYMid meet" version="1.0"><defs><clipPath id="81196a74ed"><path d="M 93.445312 93.445312 L 281.695312 93.445312 L 281.695312 281.695312 L 93.445312 281.695312 Z M 93.445312 93.445312 " clip-rule="nonzero"/></clipPath></defs><g clip-path="url(#81196a74ed)"><path fill="#407bff" d="M 152.734375 222.261719 L 152.734375 251.90625 L 182.382812 251.90625 L 182.382812 222.261719 L 224.59375 222.261719 C 232.195312 222.261719 238.816406 219.175781 243.820312 214.210938 C 248.785156 209.242188 251.871094 202.585938 251.871094 194.984375 L 251.871094 150.367188 C 251.871094 142.765625 248.785156 136.144531 243.820312 131.140625 C 238.851562 126.175781 232.195312 123.089844 224.59375 123.089844 L 180.011719 123.089844 C 172.414062 123.089844 165.789062 126.175781 160.785156 131.140625 C 155.785156 136.105469 152.734375 142.765625 152.734375 150.367188 L 152.734375 192.578125 L 93.445312 192.578125 L 93.445312 222.222656 L 152.734375 222.222656 Z M 123.089844 192.613281 L 123.089844 150.367188 C 123.089844 134.714844 129.484375 120.492188 139.679688 110.035156 C 150.140625 99.839844 164.359375 93.445312 180.011719 93.445312 L 224.59375 93.445312 C 240.246094 93.445312 254.464844 99.839844 264.925781 110.035156 C 275.15625 120.492188 281.554688 134.714844 281.554688 150.367188 L 281.554688 194.949219 C 281.554688 210.597656 275.15625 224.820312 264.960938 235.277344 C 254.539062 245.472656 240.28125 251.871094 224.632812 251.871094 L 182.382812 251.871094 L 182.382812 281.554688 L 152.734375 281.554688 L 152.734375 251.90625 L 123.089844 251.90625 Z M 211.351562 152.734375 L 193.328125 152.734375 C 190.472656 152.734375 187.648438 153.941406 185.730469 156.046875 C 183.585938 157.929688 182.417969 160.785156 182.417969 163.644531 L 182.417969 192.578125 L 211.351562 192.578125 C 214.210938 192.578125 217.03125 191.375 218.949219 189.265625 C 221.09375 187.386719 222.261719 184.527344 222.261719 181.667969 L 222.261719 163.644531 C 222.261719 160.785156 221.058594 157.964844 218.949219 156.046875 C 217.03125 153.941406 214.171875 152.734375 211.351562 152.734375 Z M 211.351562 152.734375 " fill-opacity="1" fill-rule="nonzero"/></g></svg>