<svg xmlns="http://www.w3.org/2000/svg" xmlns:xlink="http://www.w3.org/1999/xlink" width="500" zoomAndPan="magnify" viewBox="0 0 375 374.999991" height="500" preserveAspectRatio="xMidYMid meet" version="1.0"><defs><clipPath id="2cf91a4704"><path d="M 113 77.273438 L 262.546875 77.273438 L 262.546875 297.660156 L 113 297.660156 Z M 113 77.273438 " clip-rule="nonzero"/></clipPath><clipPath id="7d670c047b"><path d="M 135 81 L 255 81 L 255 171 L 135 171 Z M 135 81 " clip-rule="nonzero"/></clipPath><clipPath id="8853c20eb1"><path d="M 152.460938 81.953125 L 254.390625 139.234375 L 237.054688 170.078125 L 135.125 112.796875 Z M 152.460938 81.953125 " clip-rule="nonzero"/></clipPath><clipPath id="e36c12d450"><path d="M 152.460938 81.953125 L 254.378906 139.230469 L 237.042969 170.074219 L 135.125 112.796875 Z M 152.460938 81.953125 " clip-rule="nonzero"/></clipPath><clipPath id="c6a3f3308e"><path d="M 119 87 L 153 87 L 153 125 L 119 125 Z M 119 87 " clip-rule="nonzero"/></clipPath><clipPath id="b98dd03f9e"><path d="M 135.058594 78.367188 L 167.6875 95.980469 L 152.300781 124.488281 L 119.671875 106.875 Z M 135.058594 78.367188 " clip-rule="nonzero"/></clipPath><clipPath id="484647fbd6"><path d="M 151.351562 87.160156 L 152.25 124.460938 L 119.671875 106.875 Z M 151.351562 87.160156 " clip-rule="nonzero"/></clipPath><clipPath id="00fd152e24"><path d="M 135 152 L 255 152 L 255 245 L 135 245 Z M 135 152 " clip-rule="nonzero"/></clipPath><clipPath id="31d531979c"><path d="M 135.128906 219.523438 L 238.246094 152.039062 L 254.453125 176.800781 L 151.335938 244.285156 Z M 135.128906 219.523438 " clip-rule="nonzero"/></clipPath><clipPath id="a8ae3c8568"><path d="M 135.128906 219.523438 L 238.175781 152.085938 L 254.378906 176.847656 L 151.335938 244.285156 Z M 135.128906 219.523438 " clip-rule="nonzero"/></clipPath><clipPath id="6c7a014c9f"><path d="M 119 201 L 165 201 L 165 251 L 119 251 Z M 119 201 " clip-rule="nonzero"/></clipPath><clipPath id="fe3986988d"><path d="M 144.570312 187.503906 L 184.003906 216 L 159.101562 250.457031 L 119.667969 221.957031 Z M 144.570312 187.503906 " clip-rule="nonzero"/></clipPath><clipPath id="f974df7ee4"><path d="M 164.257812 201.730469 L 159.046875 250.414062 L 119.667969 221.957031 Z M 164.257812 201.730469 " clip-rule="nonzero"/></clipPath><clipPath id="b168d5ea5b"><path d="M 143 154 L 259 154 L 259 242 L 143 242 Z M 143 154 " clip-rule="nonzero"/></clipPath><clipPath id="a6b01ab40f"><path d="M 143.65625 215.890625 L 242.515625 154.628906 L 258.535156 180.476562 L 159.675781 241.742188 Z M 143.65625 215.890625 " clip-rule="nonzero"/></clipPath><clipPath id="c1b9cea4c6"><path d="M 143.65625 215.890625 L 242.507812 154.632812 L 258.527344 180.484375 L 159.675781 241.742188 Z M 143.65625 215.890625 " clip-rule="nonzero"/></clipPath><clipPath id="4ffc21925a"><path d="M 221 137 L 263 137 L 263 179 L 221 179 Z M 221 137 " clip-rule="nonzero"/></clipPath><clipPath id="9a6bb8c410"><path d="M 226.351562 187.492188 L 216.582031 146.171875 L 252.683594 137.632812 L 262.457031 178.953125 Z M 226.351562 187.492188 " clip-rule="nonzero"/></clipPath><clipPath id="8029579f14"><path d="M 221.472656 166.863281 L 252.699219 137.691406 L 262.457031 178.953125 Z M 221.472656 166.863281 " clip-rule="nonzero"/></clipPath><clipPath id="005e5aa51a"><path d="M 151 162 L 263 162 L 263 240 L 151 240 Z M 151 162 " clip-rule="nonzero"/></clipPath><clipPath id="5129bd9784"><path d="M 151.8125 217.070312 L 250.316406 162.5625 L 262.523438 184.625 L 164.019531 239.128906 Z M 151.8125 217.070312 " clip-rule="nonzero"/></clipPath><clipPath id="f21b0e65b1"><path d="M 151.8125 217.070312 L 250.246094 162.597656 L 262.453125 184.660156 L 164.019531 239.128906 Z M 151.8125 217.070312 " clip-rule="nonzero"/></clipPath><clipPath id="84be134d01"><path d="M 158.050781 166.164062 L 177.230469 166.164062 L 177.230469 270.886719 L 158.050781 270.886719 Z M 158.050781 166.164062 " clip-rule="nonzero"/></clipPath><clipPath id="f6f5a37fa5"><path d="M 174.398438 170.074219 L 193.5 170.074219 L 193.5 270.886719 L 174.398438 270.886719 Z M 174.398438 170.074219 " clip-rule="nonzero"/></clipPath><clipPath id="1958a4b0f3"><path d="M 158 158 L 221 158 L 221 223 L 158 223 Z M 158 158 " clip-rule="nonzero"/></clipPath><clipPath id="ff292b89f7"><path d="M 134.414062 179.601562 L 183.457031 137.636719 L 220.125 180.488281 L 171.078125 222.453125 Z M 134.414062 179.601562 " clip-rule="nonzero"/></clipPath><clipPath id="cc8133b2b7"><path d="M 158.898438 158.652344 L 220.054688 180.550781 L 171.078125 222.453125 Z M 158.898438 158.652344 " clip-rule="nonzero"/></clipPath><clipPath id="5e5ccb33fe"><path d="M 154 244 L 195 244 L 195 290 L 154 290 Z M 154 244 " clip-rule="nonzero"/></clipPath><clipPath id="fd8e1fcbaa"><path d="M 213.210938 276.8125 L 175.980469 301.257812 L 154.621094 268.726562 L 191.851562 244.28125 Z M 213.210938 276.8125 " clip-rule="nonzero"/></clipPath><clipPath id="a7d7e0da15"><path d="M 194.621094 289.019531 L 154.671875 268.691406 L 191.851562 244.28125 Z M 194.621094 289.019531 " clip-rule="nonzero"/></clipPath></defs><g clip-path="url(#2cf91a4704)"><path fill="#407bff" d="M 219.785156 122.640625 C 203.554688 113.535156 187.058594 104.164062 171.136719 94.753906 L 156.621094 86.21875 L 125.65625 104.121094 L 147.824219 116.921875 L 191.941406 142.519531 L 192.207031 142.519531 L 218.949219 157.871094 L 227.21875 153.339844 L 227.484375 153.078125 L 249.960938 140.277344 Z M 259.898438 189.191406 L 226.910156 208.234375 L 220.929688 211.929688 L 220.664062 211.929688 L 214.683594 215.359375 L 204.433594 221.34375 L 204.171875 221.605469 L 200.167969 223.894531 C 200.167969 246.941406 200.167969 269.945312 200.167969 293.304688 C 200.167969 293.875 199.902344 294.710938 199.597656 295.28125 C 198.453125 297.261719 195.902344 297.835938 193.921875 296.691406 L 154.949219 274.214844 C 153.542969 273.640625 152.664062 272.234375 152.664062 270.519531 C 152.664062 262.558594 152.664062 254.597656 152.664062 246.636719 L 115.40625 224.992188 C 113.429688 223.851562 112.546875 221.300781 113.691406 219.320312 C 114.265625 218.746094 114.835938 218.175781 115.40625 217.605469 L 131.902344 208.234375 L 152.664062 196.269531 L 152.664062 153.339844 C 152.664062 152.503906 152.664062 151.933594 153.234375 151.054688 C 154.378906 149.074219 156.664062 148.503906 158.644531 149.648438 L 196.164062 171.242188 L 210.679688 162.710938 L 188.246094 149.910156 L 187.984375 149.648438 L 143.601562 124.046875 L 115.40625 107.816406 C 114.835938 107.550781 114.265625 106.980469 113.691406 106.101562 C 112.546875 104.386719 113.429688 101.835938 115.40625 100.691406 L 154.378906 77.992188 C 155.785156 77.160156 157.238281 77.160156 158.644531 77.992188 L 175.402344 87.671875 L 187.632812 94.796875 L 260.164062 136.582031 L 260.429688 136.582031 L 260.429688 136.847656 L 260.957031 136.847656 L 260.957031 137.109375 L 261.21875 137.109375 L 261.21875 137.375 L 261.484375 137.375 L 261.484375 137.902344 L 261.746094 137.902344 L 261.746094 138.429688 L 262.011719 138.429688 L 262.011719 139.222656 L 262.277344 139.222656 L 262.277344 185.230469 C 262.453125 187.167969 261.308594 188.617188 259.898438 189.191406 Z M 222.910156 201.109375 L 253.917969 183.207031 L 253.917969 147.359375 L 231.441406 160.160156 L 231.441406 160.421875 L 191.941406 183.207031 L 187.410156 185.757812 L 187.148438 186.023438 L 184.859375 187.429688 L 159.21875 202.253906 C 158.953125 202.253906 158.644531 202.253906 158.382812 202.515625 L 136.210938 215.316406 L 125.699219 221.300781 L 156.710938 239.203125 L 193.964844 217.867188 L 194.230469 217.867188 L 199.902344 214.4375 L 200.167969 214.171875 L 210.679688 208.191406 L 216.664062 204.761719 L 216.925781 204.496094 Z M 191.941406 228.6875 L 173.730469 238.9375 L 160.933594 246.636719 C 160.933594 253.761719 160.933594 260.84375 160.933594 267.96875 L 191.941406 285.871094 C 191.941406 266.824219 191.941406 247.777344 191.941406 228.6875 Z M 187.941406 176.082031 L 160.933594 160.46875 L 160.933594 191.476562 L 180.550781 180.085938 L 182.835938 178.675781 L 183.101562 178.675781 Z M 187.941406 176.082031 " fill-opacity="1" fill-rule="nonzero"/></g><g clip-path="url(#7d670c047b)"><g clip-path="url(#8853c20eb1)"><g clip-path="url(#e36c12d450)"><path fill="#407bff" d="M 152.460938 81.953125 L 254.390625 139.234375 L 237.054688 170.078125 L 135.125 112.796875 Z M 152.460938 81.953125 " fill-opacity="1" fill-rule="nonzero"/></g></g></g><g clip-path="url(#c6a3f3308e)"><g clip-path="url(#b98dd03f9e)"><g clip-path="url(#484647fbd6)"><path fill="#407bff" d="M 135.058594 78.367188 L 167.6875 95.980469 L 152.300781 124.488281 L 119.671875 106.875 Z M 135.058594 78.367188 " fill-opacity="1" fill-rule="nonzero"/></g></g></g><g clip-path="url(#00fd152e24)"><g clip-path="url(#31d531979c)"><g clip-path="url(#a8ae3c8568)"><path fill="#407bff" d="M 135.128906 219.523438 L 238.148438 152.101562 L 254.355469 176.863281 L 151.335938 244.285156 Z M 135.128906 219.523438 " fill-opacity="1" fill-rule="nonzero"/></g></g></g><g clip-path="url(#6c7a014c9f)"><g clip-path="url(#fe3986988d)"><g clip-path="url(#f974df7ee4)"><path fill="#407bff" d="M 144.570312 187.503906 L 184.003906 216 L 159.101562 250.457031 L 119.667969 221.957031 Z M 144.570312 187.503906 " fill-opacity="1" fill-rule="nonzero"/></g></g></g><g clip-path="url(#b168d5ea5b)"><g clip-path="url(#a6b01ab40f)"><g clip-path="url(#c1b9cea4c6)"><path fill="#407bff" d="M 143.65625 215.890625 L 242.515625 154.628906 L 258.535156 180.476562 L 159.675781 241.742188 Z M 143.65625 215.890625 " fill-opacity="1" fill-rule="nonzero"/></g></g></g><path stroke-linecap="butt" transform="matrix(0.650741, -0.372876, 0.372876, 0.650741, 129.466314, 214.295244)" fill="none" stroke-linejoin="miter" d="M 0.0017919 6.498534 L 160.000266 6.49759 " stroke="#407bff" stroke-width="13" stroke-opacity="1" stroke-miterlimit="4"/><g clip-path="url(#4ffc21925a)"><g clip-path="url(#9a6bb8c410)"><g clip-path="url(#8029579f14)"><path fill="#407bff" d="M 226.351562 187.492188 L 216.582031 146.171875 L 252.683594 137.632812 L 262.457031 178.953125 Z M 226.351562 187.492188 " fill-opacity="1" fill-rule="nonzero"/></g></g></g><g clip-path="url(#005e5aa51a)"><g clip-path="url(#5129bd9784)"><g clip-path="url(#f21b0e65b1)"><path fill="#407bff" d="M 151.8125 217.070312 L 250.230469 162.609375 L 262.4375 184.671875 L 164.019531 239.128906 Z M 151.8125 217.070312 " fill-opacity="1" fill-rule="nonzero"/></g></g></g><g clip-path="url(#84be134d01)"><path fill="#407bff" d="M 158.050781 166.164062 L 177.230469 166.164062 L 177.230469 270.898438 L 158.050781 270.898438 Z M 158.050781 166.164062 " fill-opacity="1" fill-rule="nonzero"/></g><g clip-path="url(#f6f5a37fa5)"><path fill="#407bff" d="M 174.398438 170.074219 L 193.5 170.074219 L 193.5 270.890625 L 174.398438 270.890625 Z M 174.398438 170.074219 " fill-opacity="1" fill-rule="nonzero"/></g><g clip-path="url(#1958a4b0f3)"><g clip-path="url(#ff292b89f7)"><g clip-path="url(#cc8133b2b7)"><path fill="#407bff" d="M 134.414062 179.601562 L 183.457031 137.636719 L 220.125 180.488281 L 171.078125 222.453125 Z M 134.414062 179.601562 " fill-opacity="1" fill-rule="nonzero"/></g></g></g><g clip-path="url(#5e5ccb33fe)"><g clip-path="url(#fd8e1fcbaa)"><g clip-path="url(#a7d7e0da15)"><path fill="#407bff" d="M 213.210938 276.8125 L 175.980469 301.257812 L 154.621094 268.726562 L 191.851562 244.28125 Z M 213.210938 276.8125 " fill-opacity="1" fill-rule="nonzero"/></g></g></g></svg>