<svg xmlns="http://www.w3.org/2000/svg" xmlns:xlink="http://www.w3.org/1999/xlink" id="logo" zoomAndPan="magnify" viewBox="0 0 375 374.999991"  preserveAspectRatio="xMidYMid meet" version="1.0"><defs><clipPath id="370566720f"><path d="M 308.34375 200.40625 L 327.09375 200.40625 L 327.09375 219.15625 L 308.34375 219.15625 Z M 308.34375 200.40625 " clip-rule="nonzero"/></clipPath></defs><path fill="#407bff" d="M 30 157.519531 C 30 114.050781 47.6875 74.707031 76.09375 46.226562 C 104.648438 17.820312 143.917969 0.132812 187.539062 0.132812 C 230.855469 0.132812 270.277344 17.820312 298.757812 46.152344 L 298.832031 46.152344 C 309.175781 56.417969 317.945312 68.183594 324.988281 80.925781 L 325.4375 81.601562 L 325.4375 81.675781 C 335.78125 100.335938 342.453125 121.398438 344.324219 143.804688 C 344.402344 144.332031 344.402344 144.929688 344.550781 145.453125 L 344.550781 145.53125 C 344.773438 149.503906 345 153.472656 345 157.445312 L 345 157.519531 C 345 161.492188 344.773438 165.464844 344.550781 169.4375 L 344.550781 169.511719 C 344.476562 170.039062 344.476562 170.636719 344.324219 171.160156 C 342.453125 193.421875 335.855469 214.40625 325.589844 233.066406 L 325.515625 233.292969 L 325.4375 233.515625 L 325.140625 234.042969 L 324.691406 234.792969 L 324.613281 235.015625 L 324.539062 235.089844 L 324.238281 235.839844 L 324.164062 235.914062 C 323.714844 236.664062 323.265625 237.488281 322.816406 238.238281 L 322.515625 238.761719 L 322.292969 239.0625 L 322.214844 239.289062 L 321.917969 239.8125 L 321.839844 239.886719 L 321.390625 240.5625 L 321.390625 240.636719 L 320.941406 241.386719 L 320.867188 241.386719 L 320.867188 241.460938 C 320.566406 241.910156 320.34375 242.359375 319.96875 242.886719 L 319.894531 242.960938 L 319.816406 243.035156 C 319.519531 243.484375 319.292969 244.007812 318.917969 244.460938 L 318.769531 244.609375 L 318.46875 245.132812 L 318.394531 245.207031 L 318.167969 245.660156 L 317.945312 245.957031 L 317.71875 246.183594 L 317.417969 246.707031 L 316.96875 247.230469 L 316.894531 247.457031 L 316.820312 247.53125 L 316.371094 248.28125 L 316.296875 248.28125 L 315.847656 249.03125 L 315.769531 249.03125 L 315.320312 249.554688 L 315.246094 249.78125 L 315.246094 249.855469 L 314.046875 251.203125 L 313.972656 251.28125 L 313.972656 251.355469 L 313.523438 251.804688 L 313.449219 252.027344 L 313.371094 252.105469 L 312.921875 252.628906 L 312.921875 252.703125 L 312.398438 253.378906 L 312.324219 253.453125 L 312.25 253.679688 L 311.796875 254.203125 L 311.347656 254.652344 L 311.273438 254.953125 L 311.050781 255.175781 L 310.597656 255.703125 L 310.148438 256.226562 L 309.773438 256.601562 L 309.476562 257.050781 L 309.476562 257.125 L 309.027344 257.648438 L 308.800781 257.726562 L 308.800781 257.800781 L 308.351562 258.25 L 308.125 258.550781 L 307.675781 259.074219 L 307.300781 259.074219 L 307.003906 259.523438 L 306.777344 259.824219 L 306.550781 260.046875 L 306.101562 260.496094 L 306.101562 260.574219 L 306.027344 260.648438 L 305.578125 261.171875 L 305.503906 261.171875 L 305.277344 261.472656 L 304.828125 261.921875 C 304.378906 262.371094 303.929688 262.894531 303.480469 263.347656 L 303.480469 263.421875 L 302.953125 263.945312 L 302.878906 264.019531 L 302.355469 264.546875 L 301.757812 265.144531 L 301.679688 265.21875 L 301.605469 265.445312 C 301.304688 265.746094 300.855469 266.195312 300.480469 266.644531 L 300.40625 266.644531 L 299.582031 267.46875 L 299.132812 267.992188 L 282.496094 251.355469 L 269.152344 238.015625 L 260.234375 228.945312 L 251.09375 219.878906 L 221.1875 189.972656 C 225.683594 185.476562 229.207031 180.230469 231.53125 174.757812 C 233.855469 169.136719 235.054688 162.992188 235.054688 156.546875 C 235.054688 143.507812 229.730469 131.738281 221.1875 123.121094 C 212.71875 114.652344 200.878906 109.332031 187.835938 109.332031 C 174.722656 109.332031 162.878906 114.652344 154.410156 123.121094 C 145.492188 132.714844 140.171875 144.554688 140.171875 157.519531 C 140.171875 163.890625 141.371094 170.113281 143.695312 175.734375 C 146.015625 181.28125 149.539062 186.449219 154.035156 190.949219 L 124.132812 220.851562 C 115.738281 212.605469 109.21875 202.640625 104.722656 191.695312 C 100.226562 180.90625 97.902344 169.289062 97.902344 157.519531 C 97.902344 132.789062 107.945312 110.453125 124.132812 94.339844 C 140.320312 78.152344 162.65625 68.109375 187.460938 68.109375 C 212.195312 68.109375 234.453125 78.152344 250.640625 94.339844 C 266.832031 110.453125 276.875 132.863281 276.875 157.519531 C 276.875 166.363281 275.523438 175.058594 272.976562 183.453125 L 292.914062 203.386719 C 299.058594 189.296875 302.503906 173.859375 302.503906 157.519531 C 302.429688 125.742188 289.613281 96.964844 268.78125 76.128906 C 247.945312 55.292969 219.164062 42.402344 187.386719 42.402344 C 155.535156 42.402344 126.679688 55.292969 105.847656 76.128906 C 85.011719 96.964844 72.121094 125.742188 72.121094 157.519531 L 72.121094 272.789062 L 76.015625 268.890625 L 105.921875 238.988281 C 117.613281 250.679688 131.851562 259.824219 147.589844 265.667969 L 147.664062 265.667969 L 147.964844 265.742188 L 148.492188 265.96875 L 148.941406 266.042969 L 149.015625 266.042969 L 149.316406 266.269531 L 149.765625 266.34375 L 150.664062 266.644531 L 151.113281 266.71875 L 152.011719 267.019531 L 152.460938 267.09375 L 153.363281 267.316406 L 153.8125 267.542969 L 154.710938 267.769531 L 155.160156 267.84375 C 155.910156 268.066406 156.734375 268.292969 157.484375 268.515625 L 157.933594 268.59375 L 159.28125 268.816406 L 159.808594 268.890625 L 160.257812 268.96875 L 162.503906 269.339844 L 162.730469 269.417969 L 163.03125 269.417969 L 164.378906 269.640625 L 164.828125 269.640625 L 165.277344 269.714844 L 165.578125 269.792969 L 165.804688 269.792969 L 166.703125 269.941406 L 167.078125 269.941406 L 167.976562 270.089844 L 168.425781 270.089844 L 168.5 270.167969 L 168.949219 270.167969 L 169.402344 270.242188 L 169.699219 270.242188 L 169.773438 270.316406 L 170.226562 270.316406 L 170.75 270.390625 L 171.199219 270.390625 L 172.097656 270.539062 L 172.625 270.539062 L 173.074219 270.617188 L 173.597656 270.617188 L 174.347656 270.691406 L 174.421875 270.691406 L 174.871094 270.765625 L 175.769531 270.765625 L 176.296875 270.839844 L 176.746094 270.839844 L 177.195312 270.914062 L 178.167969 270.914062 L 178.617188 270.992188 L 179.59375 270.992188 L 180.042969 271.066406 L 181.917969 271.066406 L 182.367188 271.140625 L 187.164062 271.140625 L 187.164062 271.066406 C 211.222656 271.066406 233.628906 263.644531 252.140625 250.980469 L 266.90625 265.667969 L 282.34375 281.257812 C 277.023438 285.304688 271.550781 288.976562 265.707031 292.425781 C 254.691406 298.796875 243.074219 303.816406 231.15625 307.191406 L 231.15625 307.265625 C 218.339844 311.011719 204.925781 313.109375 190.984375 313.410156 L 189.410156 313.410156 L 188.960938 313.484375 L 185.738281 313.484375 L 185.664062 313.410156 L 181.992188 313.410156 L 181.015625 313.335938 L 180.34375 313.335938 C 160.40625 312.4375 141.296875 307.789062 123.832031 300.070312 L 123.160156 299.84375 L 122.707031 299.695312 L 122.632812 299.695312 L 122.558594 299.621094 L 121.210938 299.09375 L 120.984375 299.019531 L 120.910156 298.945312 L 120.835938 298.945312 L 119.261719 298.195312 L 119.035156 298.121094 L 117.835938 297.445312 L 117.613281 297.445312 L 117.539062 297.371094 L 117.460938 297.371094 L 117.238281 297.296875 L 115.886719 296.621094 L 115.886719 296.546875 L 114.464844 295.871094 L 114.238281 295.796875 L 114.164062 295.722656 L 113.941406 295.722656 L 113.714844 295.648438 L 112.589844 295.125 L 112.515625 295.046875 L 112.367188 294.898438 L 111.015625 294.222656 L 110.792969 294.148438 L 110.566406 294.074219 L 110.269531 293.847656 L 30 374.867188 Z M 304.753906 262.597656 C 304.304688 263.046875 303.855469 263.570312 303.40625 264.019531 Z M 304.753906 262.597656 " fill-opacity="1" fill-rule="nonzero"/><g clip-path="url(#370566720f)"><path fill="#407bff" d="M 317.691406 200.40625 C 322.851562 200.40625 327.035156 204.59375 327.035156 209.753906 C 327.035156 214.914062 322.851562 219.097656 317.691406 219.097656 C 312.53125 219.097656 308.34375 214.914062 308.34375 209.753906 C 308.34375 204.59375 312.53125 200.40625 317.691406 200.40625 Z M 317.691406 200.40625 " fill-opacity="1" fill-rule="evenodd"/></g></svg>